<svg id="Layer_1" data-name="Layer 1" xmlns="http://www.w3.org/2000/svg" viewBox="0 0 403.24 56.25"><defs><style>.cls-1{fill:#fff;}</style></defs><title>Artboard 4</title><polygon class="cls-1" points="1.28 53.13 3.57 56.25 34.82 56.25 38.78 53.13 47.99 18.75 35.49 18.75 26.28 53.13 13.78 53.13 22.99 18.75 10.49 18.75 1.28 53.13"/><path class="cls-1" d="M51.43,37.5l4-3.12H77.26l3.35-12.5H68.11l-1.67,6.25H53.94l1.67-6.25,4-3.12H90.83l2.29,3.13L83.9,56.25H49.53l-2.29-3.12Zm25,0H63.93L59.74,53.13h12.5Z"/><polygon class="cls-1" points="104.86 56.25 117.36 56.25 133.21 43.75 139.91 18.75 127.41 18.75 120.71 43.75 112.79 50 108.21 43.75 114.91 18.75 102.41 18.75 95.71 43.75 104.86 56.25"/><polyline class="cls-1" points="400.95 18.75 403.24 21.88 394.03 56.25 381.53 56.25 390.74 21.88 378.24 21.88 369.03 56.25 356.53 56.25 366.58 18.75"/><polygon class="cls-1" points="261.91 18.75 257.95 21.88 254.6 34.38 256.89 37.5 278.76 37.5 274.58 53.13 262.08 53.13 263.75 46.88 251.25 46.88 249.58 53.13 251.86 56.25 283.11 56.25 287.08 53.13 291.26 37.5 288.98 34.38 267.1 34.38 270.45 21.88 282.95 21.88 281.27 28.13 293.77 28.13 295.45 21.88 293.16 18.75 261.91 18.75"/><polygon class="cls-1" points="304.66 18.75 303.82 21.88 310.07 21.88 301.7 53.13 303.99 56.25 325.86 56.25 326.7 53.13 314.2 53.13 322.57 21.88 331.95 21.88 332.79 18.75 323.41 18.75 328.44 0 315.94 0 310.91 18.75 304.66 18.75"/><polygon class="cls-1" points="202.7 53.13 204.99 56.25 236.24 56.25 240.2 53.13 249.41 18.75 236.91 18.75 227.7 53.13 215.2 53.13 224.41 18.75 211.91 18.75 202.7 53.13"/><path class="cls-1" d="M160.39,37.5l4-3.12h21.88l3.35-12.5h-12.5l-1.67,6.25H162.9l1.67-6.25,4-3.12h31.25l2.29,3.13-9.21,34.38H158.49l-2.29-3.12Zm25,0h-12.5L168.7,53.13h12.5Z"/><polygon class="cls-1" points="344.49 18.75 334.45 56.25 346.95 56.25 356.99 18.75 344.49 18.75"/><polygon class="cls-1" points="345.33 15.63 357.83 15.63 360.34 6.25 347.84 6.25 345.33 15.63"/></svg>